<svg id="svg" version="1.1" xmlns="http://www.w3.org/2000/svg" xmlns:xlink="http://www.w3.org/1999/xlink" width="400" height="400" viewBox="0, 0, 400,400"><g id="svgg"><path id="path0" d="M289.997 44.750 C 285.356 46.273,283.476 49.596,285.136 53.348 C 286.149 55.638,287.448 56.456,292.600 58.049 C 297.325 59.509,297.600 59.695,297.600 61.420 C 297.600 65.633,289.522 65.397,288.591 61.157 C 288.323 59.940,288.315 59.937,286.261 60.214 C 283.530 60.582,283.561 60.545,284.199 62.664 C 286.808 71.333,302.400 70.079,302.400 61.200 C 302.400 57.209,300.549 55.408,294.800 53.804 C 290.073 52.486,289.110 51.907,289.276 50.484 C 289.622 47.510,296.047 47.797,297.009 50.829 C 297.496 52.362,301.841 51.775,301.670 50.200 C 301.237 46.207,294.766 43.185,289.997 44.750 M100.181 45.306 C 100.074 45.584,100.035 50.759,100.093 56.806 L 100.200 67.800 109.122 67.908 L 118.044 68.015 117.922 66.108 L 117.800 64.200 111.300 64.090 L 104.800 63.980 104.800 60.990 L 104.800 58.000 110.600 58.000 L 116.400 58.000 116.400 56.011 L 116.400 54.022 110.700 53.911 L 105.000 53.800 104.881 51.300 L 104.762 48.800 110.981 48.800 L 117.200 48.800 117.200 46.800 L 117.200 44.800 108.787 44.800 C 102.376 44.800,100.329 44.920,100.181 45.306 M121.867 45.067 C 121.720 45.213,121.600 50.433,121.600 56.667 L 121.600 68.000 123.800 68.000 L 126.000 68.000 126.000 60.024 C 126.000 55.637,126.135 51.965,126.300 51.864 C 126.465 51.764,127.500 55.353,128.600 59.840 L 130.600 67.998 132.885 67.999 L 135.169 68.000 135.571 66.500 C 135.791 65.675,136.668 62.203,137.519 58.784 C 139.827 49.513,139.974 49.555,139.988 59.500 L 140.000 68.000 142.000 68.000 L 144.000 68.000 144.000 56.384 L 144.000 44.769 140.514 44.884 L 137.028 45.000 135.733 50.000 C 133.430 58.890,133.104 60.038,132.931 59.864 C 132.781 59.715,129.771 48.882,129.051 45.900 C 128.789 44.818,122.809 44.124,121.867 45.067 M148.800 56.353 L 148.800 68.000 151.200 68.000 L 153.600 68.000 153.600 63.600 L 153.600 59.200 157.300 59.191 C 163.874 59.176,166.200 57.296,166.200 52.000 C 166.200 46.206,164.533 45.116,155.300 44.875 L 148.800 44.706 148.800 56.353 M174.467 45.482 C 174.258 45.877,172.516 50.250,170.597 55.200 C 168.678 60.150,166.771 65.055,166.360 66.100 L 165.612 68.000 168.109 68.000 L 170.607 68.000 171.544 65.388 L 172.481 62.775 177.140 62.888 L 181.800 63.000 182.770 65.500 L 183.741 68.000 186.270 68.000 C 187.662 68.000,188.798 67.955,188.796 67.900 C 188.795 67.845,186.735 62.670,184.220 56.400 L 179.647 45.000 177.247 44.882 C 175.271 44.784,174.781 44.890,174.467 45.482 M191.600 56.400 L 191.600 68.000 193.600 68.000 L 195.600 68.000 195.600 60.800 C 195.600 56.840,195.735 53.600,195.900 53.601 C 196.065 53.601,198.180 56.839,200.600 60.796 L 205.000 67.991 207.506 67.996 L 210.012 68.000 209.906 56.500 L 209.800 45.000 207.709 44.879 L 205.617 44.759 205.509 52.471 L 205.400 60.184 204.154 58.192 C 203.469 57.096,201.337 53.635,199.417 50.500 L 195.926 44.800 193.763 44.800 L 191.600 44.800 191.600 56.400 M221.245 45.517 C 220.936 46.092,215.384 60.221,212.763 67.100 C 212.430 67.974,212.492 68.000,214.936 68.000 L 217.452 68.000 218.374 65.388 L 219.296 62.775 223.932 62.888 L 228.568 63.000 229.547 65.500 L 230.526 68.000 233.045 68.000 L 235.565 68.000 235.016 66.500 C 234.714 65.675,232.661 60.500,230.454 55.000 L 226.440 45.000 224.044 44.882 C 222.033 44.782,221.583 44.884,221.245 45.517 M238.267 45.067 C 238.120 45.213,238.000 50.433,238.000 56.667 L 238.000 68.000 243.700 67.998 C 246.835 67.997,250.120 67.796,251.000 67.553 C 259.941 65.077,259.524 47.146,250.480 45.246 C 248.198 44.766,238.706 44.627,238.267 45.067 M268.128 45.300 C 267.861 45.719,259.222 67.600,259.205 67.900 C 259.202 67.955,260.335 68.000,261.723 68.000 L 264.246 68.000 265.046 65.500 L 265.845 63.000 270.603 63.000 L 275.361 63.000 276.315 65.500 L 277.270 68.000 279.859 68.000 C 281.282 68.000,282.372 67.865,282.281 67.700 C 282.189 67.535,280.084 62.315,277.603 56.100 L 273.091 44.800 270.769 44.800 C 269.348 44.800,268.323 44.994,268.128 45.300 M160.839 49.949 C 163.111 52.755,161.112 55.200,156.546 55.200 L 153.600 55.200 153.600 51.958 L 153.600 48.715 156.839 48.862 C 159.659 48.990,160.177 49.131,160.839 49.949 M250.399 49.799 C 252.000 51.248,252.519 52.804,252.532 56.196 C 252.557 62.489,251.321 64.000,246.146 64.000 L 242.800 64.000 242.800 56.359 L 242.800 48.718 246.158 48.859 C 248.823 48.971,249.699 49.165,250.399 49.799 M178.777 54.868 C 179.450 56.775,180.000 58.440,180.000 58.568 C 180.000 58.696,178.631 58.800,176.957 58.800 C 174.217 58.800,173.943 58.730,174.199 58.100 C 174.356 57.715,174.896 56.230,175.400 54.800 C 177.143 49.851,177.008 49.848,178.777 54.868 M224.400 51.657 C 224.400 51.882,224.940 53.415,225.600 55.064 C 227.168 58.980,227.257 58.800,223.757 58.800 C 221.017 58.800,220.743 58.730,220.999 58.100 C 221.156 57.715,221.696 56.230,222.200 54.800 C 223.532 51.019,223.648 50.782,224.042 51.026 C 224.239 51.148,224.400 51.432,224.400 51.657 M271.925 53.900 C 273.983 59.295,274.114 58.800,270.627 58.800 C 268.962 58.800,267.600 58.722,267.600 58.627 C 267.600 58.532,268.145 56.957,268.811 55.127 C 269.477 53.297,270.102 51.575,270.199 51.300 C 270.508 50.421,270.718 50.736,271.925 53.900 M344.400 67.454 C 309.234 83.883,266.812 94.036,219.800 97.276 C 209.506 97.986,168.160 97.985,157.600 97.276 C 137.364 95.916,106.183 91.952,98.200 89.724 C 94.396 88.662,115.942 100.365,129.400 106.670 C 210.354 144.597,293.751 150.728,375.966 124.796 C 378.918 123.865,381.913 122.861,382.623 122.565 L 383.913 122.026 382.676 118.913 C 381.996 117.201,381.309 115.708,381.150 115.595 C 380.990 115.482,380.359 114.222,379.748 112.795 C 379.137 111.368,378.515 110.110,378.365 110.000 C 378.215 109.890,377.536 108.630,376.855 107.200 C 376.173 105.770,374.996 103.520,374.238 102.200 C 373.481 100.880,372.374 98.900,371.778 97.800 C 371.182 96.700,370.575 95.710,370.428 95.600 C 370.282 95.490,369.643 94.503,369.009 93.406 C 368.375 92.309,367.529 91.061,367.128 90.631 C 366.728 90.201,366.400 89.639,366.400 89.383 C 366.400 89.127,365.950 88.431,365.400 87.838 C 364.850 87.244,364.400 86.655,364.400 86.528 C 364.400 86.160,360.221 80.509,357.205 76.800 C 356.758 76.250,355.989 75.251,355.496 74.581 C 353.587 71.984,348.219 66.001,347.820 66.026 C 347.589 66.040,346.050 66.683,344.400 67.454 M231.016 155.618 C 212.364 158.549,203.258 179.263,212.423 197.911 C 219.617 212.550,242.164 215.839,257.700 204.517 L 259.600 203.132 259.600 192.160 L 259.600 181.188 247.900 181.294 L 236.200 181.400 236.087 185.900 L 235.974 190.400 242.187 190.400 L 248.400 190.400 248.400 193.947 L 248.400 197.494 246.900 198.469 C 237.810 204.379,226.983 202.511,222.655 194.286 C 219.488 188.266,219.676 176.459,223.022 171.200 C 228.982 161.833,244.769 162.907,248.102 172.906 C 248.212 173.236,255.705 172.070,258.134 171.344 C 260.693 170.579,254.612 161.153,249.775 158.386 C 245.609 156.002,236.820 154.705,231.016 155.618 M38.400 183.412 L 38.400 210.424 43.500 210.312 L 48.600 210.200 48.800 189.865 L 49.000 169.530 50.271 174.465 C 50.970 177.179,53.291 186.375,55.429 194.900 L 59.316 210.400 64.606 210.400 L 69.896 210.400 70.739 206.900 C 73.423 195.752,79.994 170.343,80.353 169.727 C 80.654 169.209,80.779 174.959,80.788 189.700 L 80.800 210.400 85.800 210.400 L 90.800 210.400 90.800 183.392 L 90.800 156.384 82.500 156.492 L 74.200 156.600 70.727 170.000 C 65.052 191.894,64.692 193.116,64.307 191.761 C 63.752 189.805,61.011 179.546,58.067 168.400 C 56.528 162.570,55.143 157.485,54.991 157.100 C 54.740 156.465,53.954 156.400,46.557 156.400 L 38.400 156.400 38.400 183.412 M117.073 156.689 C 116.970 156.860,115.174 161.410,113.081 166.800 C 110.989 172.190,108.468 178.670,107.478 181.200 C 105.803 185.482,105.006 187.527,101.322 197.000 C 100.552 198.980,99.129 202.631,98.161 205.113 C 97.192 207.595,96.400 209.805,96.400 210.024 C 96.400 210.275,98.507 210.381,102.096 210.311 L 107.792 210.200 109.810 204.600 C 110.920 201.520,111.968 198.775,112.138 198.500 C 112.373 198.120,114.992 198.000,123.013 198.000 L 133.579 198.000 134.122 199.100 C 134.421 199.705,135.540 202.495,136.609 205.300 L 138.553 210.400 144.476 210.400 C 147.734 210.400,150.397 210.355,150.393 210.300 C 150.389 210.245,145.555 198.140,139.650 183.400 L 128.915 156.600 123.087 156.489 C 119.882 156.429,117.176 156.519,117.073 156.689 M156.129 175.300 C 156.445 199.676,156.830 201.776,161.829 206.384 C 169.197 213.175,187.137 213.044,194.234 206.146 C 198.734 201.773,198.919 200.651,199.096 176.700 L 199.247 156.400 193.847 156.400 L 188.448 156.400 188.314 175.900 C 188.166 197.462,188.232 196.905,185.533 199.544 C 181.597 203.392,172.129 202.532,169.037 198.045 C 167.347 195.593,167.220 193.972,167.210 174.700 L 167.200 156.400 161.542 156.400 L 155.883 156.400 156.129 175.300 M269.600 183.400 L 269.600 210.400 290.200 210.400 L 310.800 210.400 310.800 205.800 L 310.800 201.200 295.800 201.200 L 280.800 201.200 280.800 193.800 L 280.800 186.400 294.400 186.400 L 308.000 186.400 308.000 182.000 L 308.000 177.600 294.400 177.600 L 280.800 177.600 280.800 171.400 L 280.800 165.200 295.400 165.200 L 310.000 165.200 310.000 160.800 L 310.000 156.400 289.800 156.400 L 269.600 156.400 269.600 183.400 M320.097 183.300 L 320.200 210.200 325.700 210.311 L 331.200 210.423 331.200 199.211 L 331.200 188.000 334.500 188.009 C 340.506 188.025,341.038 188.497,349.906 201.700 L 355.750 210.400 362.075 210.400 C 366.187 210.400,368.400 210.254,368.400 209.984 C 368.400 207.833,356.290 190.895,352.938 188.357 L 350.504 186.513 352.472 186.059 C 363.885 183.425,368.306 170.233,360.821 161.152 C 357.437 157.047,353.871 156.400,334.621 156.400 L 319.994 156.400 320.097 183.300 M344.334 165.465 C 351.906 165.901,355.106 169.811,352.424 175.350 C 350.922 178.452,349.576 178.846,339.583 179.103 L 331.200 179.319 331.200 172.526 C 331.200 168.790,331.320 165.613,331.467 165.467 C 331.806 165.127,338.458 165.126,344.334 165.465 M123.759 171.300 C 124.102 172.235,125.647 176.381,127.192 180.514 C 128.736 184.646,130.000 188.201,130.000 188.414 C 130.000 188.648,127.167 188.800,122.807 188.800 L 115.614 188.800 117.042 184.900 C 117.827 182.755,119.377 178.435,120.487 175.300 C 122.709 169.020,122.855 168.842,123.759 171.300 M183.600 222.420 C 164.702 224.710,155.781 243.456,167.452 256.352 L 169.589 258.713 169.694 271.457 L 169.800 284.200 200.100 284.303 L 230.400 284.405 230.400 271.487 L 230.400 258.568 232.039 256.784 C 247.992 239.422,226.946 215.548,202.980 223.820 L 199.974 224.857 196.887 223.835 C 191.899 222.184,188.518 221.824,183.600 222.420 M169.828 288.355 C 169.707 288.550,169.784 290.098,169.999 291.794 C 173.524 319.598,209.470 328.244,225.268 305.088 C 228.204 300.786,230.400 294.142,230.400 289.565 L 230.400 288.000 200.224 288.000 C 183.080 288.000,169.952 288.153,169.828 288.355 M173.733 321.536 C 170.612 322.621,166.800 326.106,166.800 327.875 C 166.800 328.035,160.444 334.563,152.675 342.383 C 140.210 354.930,138.383 356.929,137.124 359.400 C 133.857 365.813,134.064 372.111,137.720 377.497 L 138.600 378.795 163.900 378.797 L 189.200 378.800 189.200 370.600 L 189.200 362.400 178.400 362.400 L 167.600 362.400 167.600 360.984 L 167.600 359.569 180.700 359.684 C 195.531 359.815,195.461 359.802,198.683 363.111 L 200.367 364.839 201.809 363.242 C 202.603 362.364,204.175 361.185,205.304 360.623 L 207.357 359.600 220.504 359.600 L 233.651 359.600 233.525 360.900 L 233.400 362.200 222.300 362.306 L 211.200 362.413 211.200 370.606 L 211.200 378.800 236.715 378.800 L 262.231 378.800 263.545 376.632 C 266.024 372.542,266.603 368.484,265.380 363.786 C 264.036 358.627,262.903 357.228,247.244 341.386 C 239.190 333.238,231.985 325.790,231.233 324.833 C 229.406 322.509,226.376 321.130,222.557 320.885 L 219.670 320.699 219.442 322.850 C 219.316 324.032,218.938 329.590,218.602 335.200 C 217.881 347.217,217.598 350.400,217.250 350.400 C 217.109 350.400,213.665 346.498,209.597 341.730 C 205.528 336.961,199.850 330.346,196.978 327.030 L 191.756 321.000 183.778 320.909 C 176.976 320.831,175.495 320.924,173.733 321.536 M196.000 321.141 C 196.000 321.884,215.110 343.744,215.225 343.133 C 215.430 342.052,216.659 321.316,216.531 321.100 C 216.282 320.681,196.000 320.722,196.000 321.141 M192.000 370.576 C 192.000 379.097,192.034 379.209,194.286 378.054 C 199.750 375.252,200.339 367.361,195.343 363.899 C 192.046 361.614,192.000 361.706,192.000 370.576 M206.200 363.265 C 199.800 366.789,200.624 376.499,207.500 378.581 L 208.400 378.854 208.400 370.827 C 208.400 362.119,208.384 362.063,206.200 363.265 M198.834 378.076 C 195.997 381.455,195.264 381.592,179.949 381.596 C 168.786 381.599,166.417 381.697,166.024 382.171 C 165.556 382.735,165.533 397.280,166.000 397.727 C 166.256 397.972,176.264 399.076,182.958 399.598 C 198.433 400.804,232.370 399.268,233.900 397.293 C 234.592 396.400,234.610 382.770,233.920 382.080 C 233.566 381.726,229.959 381.598,220.220 381.591 C 205.165 381.581,205.088 381.567,201.917 378.258 L 200.193 376.458 198.834 378.076 " stroke="none" fill="#fafafb" fill-rule="evenodd"></path><path id="path1" d="M184.200 0.259 C 174.359 1.035,163.600 2.404,163.600 2.880 C 163.600 3.056,163.195 3.198,162.700 3.196 C 161.380 3.191,152.634 4.869,152.400 5.173 C 152.290 5.315,149.950 5.941,147.200 6.562 C 144.450 7.183,142.110 7.816,142.000 7.968 C 141.890 8.119,140.270 8.656,138.400 9.161 C 136.530 9.665,134.280 10.397,133.400 10.787 C 132.520 11.178,130.540 11.904,129.000 12.402 C 127.460 12.899,126.000 13.463,125.756 13.655 C 125.513 13.847,124.272 14.362,123.000 14.800 C 121.728 15.238,120.473 15.773,120.212 15.990 C 119.951 16.207,118.493 16.853,116.972 17.425 C 115.451 17.998,114.115 18.594,114.003 18.752 C 113.891 18.909,112.632 19.537,111.205 20.148 C 109.778 20.759,108.518 21.381,108.405 21.530 C 108.292 21.678,107.075 22.328,105.700 22.974 C 104.325 23.619,103.199 24.249,103.199 24.374 C 103.198 24.498,102.379 24.936,101.380 25.347 C 100.380 25.758,99.317 26.340,99.018 26.639 C 98.719 26.938,97.692 27.612,96.737 28.136 C 93.191 30.083,90.000 32.130,90.000 32.460 C 90.000 32.647,89.816 32.800,89.591 32.800 C 89.074 32.800,86.113 34.717,84.804 35.900 C 84.256 36.395,83.679 36.800,83.521 36.800 C 83.044 36.800,78.800 40.089,78.800 40.458 C 78.800 40.646,78.608 40.800,78.373 40.800 C 77.948 40.800,75.866 42.277,74.142 43.800 C 73.644 44.240,72.571 45.140,71.757 45.800 C 62.952 52.937,51.007 65.082,43.626 74.400 C 43.190 74.950,42.376 75.966,41.817 76.658 C 41.258 77.350,40.800 78.115,40.800 78.358 C 40.800 78.601,40.646 78.800,40.458 78.800 C 40.089 78.800,36.800 83.044,36.800 83.521 C 36.800 83.679,36.395 84.256,35.900 84.804 C 34.717 86.113,32.800 89.074,32.800 89.591 C 32.800 89.816,32.647 90.000,32.460 90.000 C 32.130 90.000,30.083 93.191,28.136 96.737 C 27.612 97.692,26.938 98.719,26.639 99.018 C 26.340 99.317,25.758 100.380,25.347 101.380 C 24.936 102.379,24.498 103.198,24.374 103.199 C 24.249 103.199,23.619 104.325,22.974 105.700 C 22.328 107.075,21.678 108.292,21.530 108.405 C 21.381 108.518,20.757 109.778,20.143 111.205 C 19.529 112.632,18.796 114.038,18.513 114.329 C 18.231 114.619,18.000 115.118,18.000 115.437 C 18.000 115.755,17.298 117.497,16.441 119.308 C 15.584 121.119,14.755 123.050,14.599 123.600 C 14.444 124.150,14.093 124.960,13.820 125.400 C 13.547 125.840,12.913 127.460,12.410 129.000 C 11.908 130.540,11.169 132.536,10.768 133.435 C 10.367 134.334,9.648 136.584,9.170 138.435 C 8.692 140.286,8.164 141.890,7.997 142.000 C 7.829 142.110,7.183 144.450,6.562 147.200 C 5.941 149.950,5.312 152.290,5.165 152.400 C 5.018 152.510,4.493 154.940,4.000 157.800 C 3.507 160.660,2.945 163.360,2.751 163.800 C 1.170 167.398,-0.132 187.391,0.115 204.272 C 0.336 219.355,1.519 233.692,2.783 236.600 C 2.974 237.040,3.530 239.650,4.019 242.400 C 4.507 245.150,5.025 247.490,5.169 247.600 C 5.314 247.710,5.941 250.050,6.562 252.800 C 7.183 255.550,7.817 257.890,7.969 258.000 C 8.122 258.110,8.755 260.135,9.375 262.500 C 9.996 264.865,10.621 266.800,10.763 266.800 C 10.906 266.800,11.354 267.925,11.758 269.300 C 12.162 270.675,12.843 272.520,13.271 273.400 C 13.698 274.280,14.421 276.080,14.876 277.400 C 15.331 278.720,15.927 280.070,16.200 280.400 C 16.474 280.730,17.006 281.947,17.383 283.105 C 17.759 284.263,18.284 285.433,18.547 285.705 C 18.811 285.977,19.529 287.368,20.143 288.795 C 20.757 290.222,21.390 291.482,21.551 291.595 C 21.711 291.708,22.257 292.790,22.765 294.000 C 23.273 295.210,23.918 296.470,24.198 296.800 C 24.479 297.130,25.185 298.300,25.766 299.400 C 27.306 302.313,28.981 305.161,29.781 306.227 C 30.166 306.739,30.777 307.683,31.140 308.324 C 32.546 310.809,34.247 313.382,35.300 314.617 C 35.905 315.326,36.400 316.085,36.400 316.304 C 36.400 316.523,36.694 316.946,37.054 317.245 C 37.414 317.544,38.118 318.437,38.619 319.230 C 39.120 320.023,39.776 320.926,40.078 321.236 C 40.380 321.546,41.062 322.430,41.595 323.200 C 42.127 323.970,42.959 325.050,43.443 325.600 C 43.928 326.150,45.445 327.950,46.816 329.600 C 50.815 334.414,62.457 346.318,67.353 350.600 C 68.862 351.920,70.396 353.270,70.762 353.600 C 71.127 353.930,72.140 354.730,73.013 355.379 C 73.886 356.027,74.690 356.681,74.800 356.832 C 74.910 356.984,76.350 358.121,78.000 359.359 C 79.650 360.598,81.450 361.965,82.000 362.397 C 83.505 363.580,85.591 365.013,87.600 366.244 C 88.590 366.851,89.642 367.589,89.938 367.883 C 90.234 368.178,90.958 368.668,91.548 368.973 C 92.138 369.278,93.602 370.174,94.801 370.964 C 96.000 371.754,97.211 372.400,97.491 372.400 C 97.771 372.400,98.000 372.548,98.000 372.728 C 98.000 372.908,98.945 373.562,100.100 374.181 C 101.255 374.800,103.460 375.978,105.000 376.798 C 106.540 377.618,108.340 378.585,109.000 378.947 C 111.474 380.305,121.082 384.690,123.200 385.427 C 124.410 385.849,125.498 386.326,125.619 386.489 C 125.739 386.651,127.268 387.238,129.016 387.793 C 130.765 388.348,132.758 389.069,133.446 389.395 C 134.133 389.721,136.204 390.386,138.048 390.873 C 139.892 391.360,141.490 391.875,141.600 392.017 C 141.710 392.159,143.510 392.680,145.600 393.175 C 147.690 393.670,150.390 394.398,151.600 394.794 C 152.810 395.189,155.780 395.841,158.200 396.241 C 160.620 396.642,162.690 397.084,162.800 397.223 C 162.910 397.362,163.630 397.576,164.400 397.697 L 165.800 397.918 165.669 390.338 C 165.574 384.857,165.670 382.597,166.018 382.179 C 166.419 381.695,168.702 381.599,179.949 381.596 C 195.264 381.592,195.997 381.455,198.834 378.076 L 200.193 376.458 201.917 378.258 C 205.088 381.567,205.165 381.581,220.220 381.591 C 229.959 381.598,233.566 381.726,233.920 382.080 C 234.545 382.705,234.592 396.093,233.974 397.249 C 233.521 398.094,235.335 398.072,237.400 397.207 C 237.840 397.023,240.450 396.421,243.200 395.869 C 249.728 394.559,258.164 392.368,258.333 391.938 C 258.407 391.752,258.757 391.600,259.113 391.600 C 259.945 391.600,266.474 389.619,267.000 389.207 C 267.220 389.035,268.964 388.410,270.876 387.819 C 272.788 387.228,274.408 386.622,274.476 386.472 C 274.544 386.322,275.590 385.854,276.800 385.430 C 279.022 384.653,288.446 380.341,291.400 378.750 C 293.983 377.359,298.084 375.164,299.676 374.322 C 300.487 373.892,301.364 373.284,301.625 372.970 C 301.885 372.657,302.305 372.400,302.558 372.400 C 302.811 372.400,304.000 371.754,305.199 370.964 C 306.398 370.174,307.862 369.278,308.452 368.973 C 309.042 368.668,309.766 368.178,310.062 367.883 C 310.358 367.589,311.410 366.851,312.400 366.244 C 314.409 365.013,316.495 363.580,318.000 362.397 C 318.550 361.965,320.350 360.598,322.000 359.359 C 323.650 358.121,325.090 356.993,325.200 356.853 C 325.310 356.713,326.745 355.519,328.390 354.199 C 334.811 349.047,347.425 336.532,353.184 329.600 C 354.555 327.950,356.072 326.150,356.557 325.600 C 357.041 325.050,357.873 323.970,358.405 323.200 C 358.938 322.430,359.620 321.546,359.922 321.236 C 360.224 320.926,360.880 320.023,361.381 319.230 C 361.882 318.437,362.586 317.544,362.946 317.245 C 363.306 316.946,363.600 316.524,363.600 316.306 C 363.600 316.088,364.065 315.345,364.634 314.655 C 365.948 313.060,369.200 308.082,369.200 307.666 C 369.200 307.493,369.529 306.998,369.931 306.566 C 370.668 305.775,372.279 303.092,374.233 299.400 C 374.815 298.300,375.521 297.130,375.802 296.800 C 376.082 296.470,376.727 295.210,377.235 294.000 C 377.743 292.790,378.289 291.708,378.449 291.595 C 378.610 291.482,379.243 290.222,379.857 288.795 C 380.471 287.368,381.189 285.977,381.453 285.705 C 381.716 285.433,382.241 284.263,382.617 283.105 C 382.994 281.947,383.526 280.730,383.800 280.400 C 384.073 280.070,384.669 278.720,385.124 277.400 C 385.579 276.080,386.302 274.280,386.729 273.400 C 387.157 272.520,387.838 270.675,388.242 269.300 C 388.646 267.925,389.094 266.800,389.237 266.800 C 389.379 266.800,390.004 264.865,390.625 262.500 C 391.245 260.135,391.870 258.110,392.014 258.000 C 392.402 257.703,394.687 248.543,395.856 242.600 C 396.418 239.740,397.037 237.040,397.230 236.600 C 397.600 235.758,398.421 229.846,399.285 221.800 C 399.621 218.670,399.800 211.156,399.800 200.200 C 399.800 189.244,399.621 181.730,399.285 178.600 C 398.422 170.570,397.600 164.643,397.232 163.800 C 397.039 163.360,396.478 160.660,395.985 157.800 C 395.492 154.940,394.954 152.420,394.791 152.200 C 394.627 151.980,393.996 149.640,393.389 147.000 C 392.783 144.360,392.152 142.110,391.988 142.000 C 391.825 141.890,391.215 140.007,390.632 137.816 C 390.050 135.624,389.442 133.734,389.281 133.616 C 389.120 133.497,388.565 132.050,388.048 130.400 C 387.531 128.750,386.679 126.483,386.154 125.361 C 385.629 124.240,385.200 123.126,385.200 122.885 C 385.200 121.927,384.256 122.044,379.722 123.559 C 297.774 150.949,211.485 145.127,129.400 106.670 C 115.942 100.365,94.396 88.662,98.200 89.724 C 106.183 91.952,137.364 95.916,157.600 97.276 C 168.160 97.985,209.506 97.986,219.800 97.276 C 263.702 94.251,303.915 85.137,337.000 70.716 C 340.520 69.181,344.524 67.448,345.897 66.863 C 348.849 65.606,348.860 65.566,346.800 63.506 C 345.920 62.626,345.200 61.792,345.200 61.653 C 345.200 61.379,339.887 56.189,335.318 52.000 C 331.255 48.275,327.811 45.296,325.606 43.600 C 324.891 43.050,323.806 42.195,323.195 41.700 C 322.584 41.205,321.885 40.800,321.642 40.800 C 321.399 40.800,321.200 40.646,321.200 40.458 C 321.200 40.089,316.956 36.800,316.479 36.800 C 316.321 36.800,315.744 36.395,315.196 35.900 C 313.887 34.717,310.926 32.800,310.409 32.800 C 310.184 32.800,310.000 32.637,310.000 32.438 C 310.000 32.239,308.976 31.474,307.725 30.738 C 304.638 28.923,302.435 27.576,300.782 26.496 C 300.022 25.999,298.815 25.378,298.100 25.116 C 297.385 24.854,296.800 24.529,296.800 24.393 C 296.800 24.258,295.675 23.619,294.300 22.974 C 292.925 22.328,291.599 21.611,291.352 21.381 C 291.106 21.151,289.801 20.524,288.452 19.988 C 287.104 19.452,286.000 18.890,286.000 18.738 C 286.000 18.586,285.325 18.245,284.500 17.980 C 283.675 17.715,281.526 16.801,279.724 15.949 C 277.922 15.097,276.207 14.400,275.913 14.400 C 275.619 14.400,275.023 14.154,274.589 13.853 C 274.155 13.551,272.360 12.827,270.600 12.242 C 268.840 11.657,266.814 10.905,266.098 10.570 C 265.382 10.235,263.312 9.587,261.498 9.130 C 259.684 8.673,258.110 8.163,258.000 7.996 C 257.890 7.829,255.550 7.183,252.800 6.562 C 250.050 5.941,247.710 5.312,247.600 5.165 C 247.490 5.018,245.060 4.493,242.200 4.000 C 239.340 3.507,236.640 2.954,236.200 2.771 C 235.200 2.356,231.040 1.741,223.800 0.937 C 218.464 0.344,189.423 -0.153,184.200 0.259 M298.142 45.572 C 300.120 46.529,301.463 48.291,301.670 50.200 C 301.841 51.775,297.496 52.362,297.009 50.829 C 296.047 47.797,289.622 47.510,289.276 50.484 C 289.110 51.907,290.073 52.486,294.800 53.804 C 300.549 55.408,302.400 57.209,302.400 61.200 C 302.400 70.079,286.808 71.333,284.199 62.664 C 283.561 60.545,283.530 60.582,286.261 60.214 C 288.315 59.937,288.323 59.940,288.591 61.157 C 289.522 65.397,297.600 65.633,297.600 61.420 C 297.600 59.695,297.325 59.509,292.600 58.049 C 287.448 56.456,286.149 55.638,285.136 53.348 C 282.344 47.036,290.766 42.001,298.142 45.572 M117.200 46.800 L 117.200 48.800 110.981 48.800 L 104.762 48.800 104.881 51.300 L 105.000 53.800 110.700 53.911 L 116.400 54.022 116.400 56.011 L 116.400 58.000 110.600 58.000 L 104.800 58.000 104.800 60.990 L 104.800 63.980 111.300 64.090 L 117.800 64.200 117.922 66.108 L 118.044 68.015 109.122 67.908 L 100.200 67.800 100.093 56.806 C 100.035 50.759,100.074 45.584,100.181 45.306 C 100.329 44.920,102.376 44.800,108.787 44.800 L 117.200 44.800 117.200 46.800 M129.051 45.900 C 129.771 48.882,132.781 59.715,132.931 59.864 C 133.104 60.038,133.430 58.890,135.733 50.000 L 137.028 45.000 140.514 44.884 L 144.000 44.769 144.000 56.384 L 144.000 68.000 142.000 68.000 L 140.000 68.000 139.988 59.500 C 139.974 49.555,139.827 49.513,137.519 58.784 C 136.668 62.203,135.791 65.675,135.571 66.500 L 135.169 68.000 132.885 67.999 L 130.600 67.998 128.600 59.840 C 127.500 55.353,126.465 51.764,126.300 51.864 C 126.135 51.965,126.000 55.637,126.000 60.024 L 126.000 68.000 123.800 68.000 L 121.600 68.000 121.600 56.667 C 121.600 43.613,121.214 44.800,125.459 44.800 C 128.756 44.800,128.787 44.810,129.051 45.900 M163.068 45.716 C 165.371 46.935,166.200 48.599,166.200 52.000 C 166.200 57.296,163.874 59.176,157.300 59.191 L 153.600 59.200 153.600 63.600 L 153.600 68.000 151.200 68.000 L 148.800 68.000 148.800 56.353 L 148.800 44.706 155.300 44.875 C 160.372 45.007,162.079 45.192,163.068 45.716 M184.220 56.400 C 186.735 62.670,188.795 67.845,188.796 67.900 C 188.798 67.955,187.662 68.000,186.270 68.000 L 183.741 68.000 182.770 65.500 L 181.800 63.000 177.140 62.888 L 172.481 62.775 171.544 65.388 L 170.607 68.000 168.109 68.000 L 165.612 68.000 166.360 66.100 C 166.771 65.055,168.678 60.150,170.597 55.200 C 175.084 43.626,174.367 44.739,177.247 44.882 L 179.647 45.000 184.220 56.400 M199.417 50.500 C 201.337 53.635,203.469 57.096,204.154 58.192 L 205.400 60.184 205.509 52.471 L 205.617 44.759 207.709 44.879 L 209.800 45.000 209.906 56.500 L 210.012 68.000 207.506 67.996 L 205.000 67.991 200.600 60.796 C 198.180 56.839,196.065 53.601,195.900 53.601 C 195.735 53.600,195.600 56.840,195.600 60.800 L 195.600 68.000 193.600 68.000 L 191.600 68.000 191.600 56.400 L 191.600 44.800 193.763 44.800 L 195.926 44.800 199.417 50.500 M230.454 55.000 C 232.661 60.500,234.714 65.675,235.016 66.500 L 235.565 68.000 233.045 68.000 L 230.526 68.000 229.547 65.500 L 228.568 63.000 223.932 62.888 L 219.296 62.775 218.374 65.388 L 217.452 68.000 214.936 68.000 C 212.492 68.000,212.430 67.974,212.763 67.100 C 215.384 60.221,220.936 46.092,221.245 45.517 C 221.583 44.884,222.033 44.782,224.044 44.882 L 226.440 45.000 230.454 55.000 M250.480 45.246 C 259.524 47.146,259.941 65.077,251.000 67.553 C 250.120 67.796,246.835 67.997,243.700 67.998 L 238.000 68.000 238.000 56.667 C 238.000 50.433,238.120 45.213,238.267 45.067 C 238.706 44.627,248.198 44.766,250.480 45.246 M277.603 56.100 C 280.084 62.315,282.189 67.535,282.281 67.700 C 282.372 67.865,281.282 68.000,279.859 68.000 L 277.270 68.000 276.315 65.500 L 275.361 63.000 270.603 63.000 L 265.845 63.000 265.046 65.500 L 264.246 68.000 261.723 68.000 C 260.335 68.000,259.202 67.955,259.205 67.900 C 259.222 67.600,267.861 45.719,268.128 45.300 C 268.323 44.994,269.348 44.800,270.769 44.800 L 273.091 44.800 277.603 56.100 M153.600 51.958 L 153.600 55.200 156.546 55.200 C 163.603 55.200,163.881 49.182,156.839 48.862 L 153.600 48.715 153.600 51.958 M242.800 56.359 L 242.800 64.000 246.146 64.000 C 251.321 64.000,252.557 62.489,252.532 56.196 C 252.510 50.631,251.153 49.069,246.158 48.859 L 242.800 48.718 242.800 56.359 M176.611 51.473 C 176.449 51.873,175.904 53.370,175.400 54.800 C 174.896 56.230,174.356 57.715,174.199 58.100 C 173.943 58.730,174.217 58.800,176.957 58.800 C 178.631 58.800,180.000 58.696,180.000 58.568 C 180.000 58.055,177.533 51.378,177.231 51.073 C 177.052 50.893,176.773 51.073,176.611 51.473 M223.400 51.502 C 223.244 51.886,222.704 53.370,222.200 54.800 C 221.696 56.230,221.156 57.715,220.999 58.100 C 220.743 58.730,221.017 58.800,223.757 58.800 C 227.257 58.800,227.168 58.980,225.600 55.064 C 224.940 53.415,224.400 51.882,224.400 51.657 C 224.400 50.905,223.688 50.795,223.400 51.502 M270.199 51.300 C 270.102 51.575,269.477 53.297,268.811 55.127 C 268.145 56.957,267.600 58.532,267.600 58.627 C 267.600 58.722,268.962 58.800,270.627 58.800 C 274.114 58.800,273.983 59.295,271.925 53.900 C 270.718 50.736,270.508 50.421,270.199 51.300 M244.541 156.385 C 250.335 157.867,254.886 161.503,257.198 166.497 C 258.844 170.053,259.041 171.073,258.134 171.344 C 255.705 172.070,248.212 173.236,248.102 172.906 C 244.769 162.907,228.982 161.833,223.022 171.200 C 219.676 176.459,219.488 188.266,222.655 194.286 C 226.983 202.511,237.810 204.379,246.900 198.469 L 248.400 197.494 248.400 193.947 L 248.400 190.400 242.187 190.400 L 235.974 190.400 236.087 185.900 L 236.200 181.400 247.900 181.294 L 259.600 181.188 259.600 192.160 L 259.600 203.132 257.700 204.517 C 242.164 215.839,219.617 212.550,212.423 197.911 C 200.508 173.667,218.941 149.834,244.541 156.385 M54.991 157.100 C 55.143 157.485,56.528 162.570,58.067 168.400 C 61.011 179.546,63.752 189.805,64.307 191.761 C 64.692 193.116,65.052 191.894,70.727 170.000 L 74.200 156.600 82.500 156.492 L 90.800 156.384 90.800 183.392 L 90.800 210.400 85.800 210.400 L 80.800 210.400 80.788 189.700 C 80.779 174.959,80.654 169.209,80.353 169.727 C 79.994 170.343,73.423 195.752,70.739 206.900 L 69.896 210.400 64.606 210.400 L 59.316 210.400 55.429 194.900 C 53.291 186.375,50.970 177.179,50.271 174.465 L 49.000 169.530 48.800 189.865 L 48.600 210.200 43.500 210.312 L 38.400 210.424 38.400 183.412 L 38.400 156.400 46.557 156.400 C 53.954 156.400,54.740 156.465,54.991 157.100 M139.650 183.400 C 145.555 198.140,150.389 210.245,150.393 210.300 C 150.397 210.355,147.734 210.400,144.476 210.400 L 138.553 210.400 136.609 205.300 C 135.540 202.495,134.421 199.705,134.122 199.100 L 133.579 198.000 123.013 198.000 C 114.992 198.000,112.373 198.120,112.138 198.500 C 111.968 198.775,110.920 201.520,109.810 204.600 L 107.792 210.200 102.096 210.311 C 98.507 210.381,96.400 210.275,96.400 210.024 C 96.400 209.805,97.192 207.595,98.161 205.113 C 99.129 202.631,100.552 198.980,101.322 197.000 C 105.006 187.527,105.803 185.482,107.478 181.200 C 108.468 178.670,110.989 172.190,113.081 166.800 C 115.174 161.410,116.970 156.860,117.073 156.689 C 117.176 156.519,119.882 156.429,123.087 156.489 L 128.915 156.600 139.650 183.400 M167.210 174.700 C 167.220 193.972,167.347 195.593,169.037 198.045 C 172.129 202.532,181.597 203.392,185.533 199.544 C 188.232 196.905,188.166 197.462,188.314 175.900 L 188.448 156.400 193.847 156.400 L 199.247 156.400 199.096 176.700 C 198.919 200.651,198.734 201.773,194.234 206.146 C 187.137 213.044,169.197 213.175,161.829 206.384 C 156.830 201.776,156.445 199.676,156.129 175.300 L 155.883 156.400 161.542 156.400 L 167.200 156.400 167.210 174.700 M310.000 160.800 L 310.000 165.200 295.400 165.200 L 280.800 165.200 280.800 171.400 L 280.800 177.600 294.400 177.600 L 308.000 177.600 308.000 182.000 L 308.000 186.400 294.400 186.400 L 280.800 186.400 280.800 193.800 L 280.800 201.200 295.800 201.200 L 310.800 201.200 310.800 205.800 L 310.800 210.400 290.200 210.400 L 269.600 210.400 269.600 183.400 L 269.600 156.400 289.800 156.400 L 310.000 156.400 310.000 160.800 M352.123 156.839 C 368.449 159.330,368.723 182.308,352.472 186.059 L 350.504 186.513 352.938 188.357 C 356.290 190.895,368.400 207.833,368.400 209.984 C 368.400 210.254,366.187 210.400,362.075 210.400 L 355.750 210.400 349.906 201.700 C 341.038 188.497,340.506 188.025,334.500 188.009 L 331.200 188.000 331.200 199.211 L 331.200 210.423 325.700 210.311 L 320.200 210.200 320.097 183.300 L 319.994 156.400 334.621 156.400 C 343.224 156.400,350.431 156.581,352.123 156.839 M331.467 165.467 C 331.320 165.613,331.200 168.790,331.200 172.526 L 331.200 179.319 339.583 179.103 C 347.107 178.910,348.151 178.798,349.759 178.020 C 354.182 175.879,354.371 169.474,350.098 166.563 C 348.503 165.477,332.404 164.529,331.467 165.467 M120.487 175.300 C 119.377 178.435,117.827 182.755,117.042 184.900 L 115.614 188.800 122.807 188.800 C 127.167 188.800,130.000 188.648,130.000 188.414 C 130.000 188.201,128.736 184.646,127.192 180.514 C 125.647 176.381,124.102 172.235,123.759 171.300 C 122.855 168.842,122.709 169.020,120.487 175.300 M191.000 222.415 C 192.540 222.634,195.189 223.273,196.887 223.835 L 199.974 224.857 202.980 223.820 C 226.946 215.548,247.992 239.422,232.039 256.784 L 230.400 258.568 230.400 271.487 L 230.400 284.405 200.100 284.303 L 169.800 284.200 169.694 271.457 L 169.589 258.713 167.452 256.352 C 154.777 242.346,165.912 223.011,187.200 222.060 C 187.750 222.036,189.460 222.195,191.000 222.415 M230.400 289.565 C 230.400 294.142,228.204 300.786,225.268 305.088 C 209.470 328.244,173.524 319.598,169.999 291.794 C 169.784 290.098,169.707 288.550,169.828 288.355 C 169.952 288.153,183.080 288.000,200.224 288.000 L 230.400 288.000 230.400 289.565 M196.978 327.030 C 199.850 330.346,205.528 336.961,209.597 341.730 C 213.665 346.498,217.109 350.400,217.250 350.400 C 217.598 350.400,217.881 347.217,218.602 335.200 C 218.938 329.590,219.316 324.032,219.442 322.850 L 219.670 320.699 222.557 320.885 C 226.376 321.130,229.406 322.509,231.233 324.833 C 231.985 325.790,239.190 333.238,247.244 341.386 C 262.903 357.228,264.036 358.627,265.380 363.786 C 266.603 368.484,266.024 372.542,263.545 376.632 L 262.231 378.800 236.715 378.800 L 211.200 378.800 211.200 370.606 L 211.200 362.413 222.300 362.306 L 233.400 362.200 233.525 360.900 L 233.651 359.600 220.504 359.600 L 207.357 359.600 205.304 360.623 C 204.175 361.185,202.603 362.364,201.809 363.242 L 200.367 364.839 198.683 363.111 C 195.461 359.802,195.531 359.815,180.700 359.684 L 167.600 359.569 167.600 360.984 L 167.600 362.400 178.400 362.400 L 189.200 362.400 189.200 370.600 L 189.200 378.800 163.900 378.797 L 138.600 378.795 137.720 377.497 C 134.064 372.111,133.857 365.813,137.124 359.400 C 138.383 356.929,140.210 354.930,152.675 342.383 C 160.444 334.563,166.800 328.035,166.800 327.875 C 166.800 327.145,168.910 324.357,170.218 323.359 C 173.124 321.143,174.975 320.808,183.778 320.909 L 191.756 321.000 196.978 327.030 M216.531 321.100 C 216.659 321.316,215.430 342.052,215.225 343.133 C 215.110 343.744,196.000 321.884,196.000 321.141 C 196.000 320.722,216.282 320.681,216.531 321.100 M195.343 363.899 C 200.339 367.361,199.750 375.252,194.286 378.054 C 192.034 379.209,192.000 379.097,192.000 370.576 C 192.000 361.706,192.046 361.614,195.343 363.899 M208.400 370.827 L 208.400 378.854 207.500 378.581 C 200.624 376.499,199.800 366.789,206.200 363.265 C 208.384 362.063,208.400 362.119,208.400 370.827 " stroke="none" fill="#343c8c" fill-rule="evenodd"></path></g></svg>